<mxfile host="app.diagrams.net" modified="2020-10-22T19:57:15.694Z" agent="5.0 (Windows NT 10.0; Win64; x64) AppleWebKit/537.36 (KHTML, like Gecko) Chrome/86.0.4240.75 Safari/537.36" etag="jfDxqXDidD6S-oBJ9wSa" version="13.8.1" type="github">
  <diagram id="g5sk9xtvm8ItGqy0_1mJ" name="Page-1">
    <mxGraphModel dx="782" dy="469" grid="1" gridSize="10" guides="1" tooltips="1" connect="1" arrows="1" fold="1" page="1" pageScale="1" pageWidth="850" pageHeight="1100" math="0" shadow="0">
      <root>
        <mxCell id="0" />
        <mxCell id="1" parent="0" />
        <mxCell id="ADPePZ-A79Ei2Xs7nwOU-1" value="&lt;b&gt;&lt;font color=&quot;#0000ff&quot; size=&quot;1&quot;&gt;&lt;u style=&quot;font-size: 22px&quot;&gt;User&lt;/u&gt;&lt;/font&gt;&lt;/b&gt;" style="text;html=1;align=center;verticalAlign=middle;resizable=0;points=[];autosize=1;" vertex="1" parent="1">
          <mxGeometry y="93.86" width="60" height="20" as="geometry" />
        </mxCell>
        <mxCell id="ADPePZ-A79Ei2Xs7nwOU-2" value="&lt;font color=&quot;#0000ff&quot; size=&quot;1&quot;&gt;&lt;b&gt;&lt;u style=&quot;font-size: 22px&quot;&gt;The Elk Stack&lt;/u&gt;&lt;/b&gt;&lt;/font&gt;" style="text;html=1;align=center;verticalAlign=middle;resizable=0;points=[];autosize=1;" vertex="1" parent="1">
          <mxGeometry x="200" y="43.86" width="160" height="20" as="geometry" />
        </mxCell>
        <mxCell id="ADPePZ-A79Ei2Xs7nwOU-11" value="" style="edgeStyle=orthogonalEdgeStyle;shape=flexArrow;rounded=0;orthogonalLoop=1;jettySize=auto;html=1;" edge="1" parent="1">
          <mxGeometry relative="1" as="geometry">
            <mxPoint x="100" y="103.86" as="sourcePoint" />
            <mxPoint x="60" y="103.86" as="targetPoint" />
          </mxGeometry>
        </mxCell>
        <mxCell id="ADPePZ-A79Ei2Xs7nwOU-5" value="&lt;font style=&quot;font-size: 16px&quot; color=&quot;#ff0000&quot;&gt;&lt;b&gt;Kibana&lt;/b&gt;&lt;/font&gt;" style="text;html=1;align=center;verticalAlign=middle;resizable=0;points=[];autosize=1;" vertex="1" parent="1">
          <mxGeometry x="110" y="93.86" width="70" height="20" as="geometry" />
        </mxCell>
        <mxCell id="ADPePZ-A79Ei2Xs7nwOU-12" value="" style="edgeStyle=orthogonalEdgeStyle;shape=flexArrow;rounded=0;orthogonalLoop=1;jettySize=auto;html=1;" edge="1" parent="1" source="ADPePZ-A79Ei2Xs7nwOU-6" target="ADPePZ-A79Ei2Xs7nwOU-5">
          <mxGeometry relative="1" as="geometry" />
        </mxCell>
        <mxCell id="ADPePZ-A79Ei2Xs7nwOU-6" value="&lt;font style=&quot;font-size: 16px&quot; color=&quot;#ff0000&quot;&gt;&lt;b&gt;Elasticseach&lt;/b&gt;&lt;/font&gt;" style="text;html=1;align=center;verticalAlign=middle;resizable=0;points=[];autosize=1;" vertex="1" parent="1">
          <mxGeometry x="210" y="93.86" width="110" height="20" as="geometry" />
        </mxCell>
        <mxCell id="ADPePZ-A79Ei2Xs7nwOU-13" value="" style="edgeStyle=orthogonalEdgeStyle;shape=flexArrow;rounded=0;orthogonalLoop=1;jettySize=auto;html=1;" edge="1" parent="1" target="ADPePZ-A79Ei2Xs7nwOU-6">
          <mxGeometry relative="1" as="geometry">
            <mxPoint x="360" y="104" as="sourcePoint" />
            <Array as="points">
              <mxPoint x="360" y="104" />
              <mxPoint x="360" y="104" />
            </Array>
          </mxGeometry>
        </mxCell>
        <mxCell id="ADPePZ-A79Ei2Xs7nwOU-7" value="&lt;font style=&quot;font-size: 16px&quot;&gt;Logstash&lt;/font&gt;" style="text;html=1;align=center;verticalAlign=middle;resizable=0;points=[];autosize=1;" vertex="1" parent="1">
          <mxGeometry x="370" y="93.86" width="80" height="20" as="geometry" />
        </mxCell>
        <mxCell id="ADPePZ-A79Ei2Xs7nwOU-8" value="&lt;font style=&quot;font-size: 16px&quot; color=&quot;#ff0000&quot;&gt;&lt;b&gt;FileBeat&lt;/b&gt;&lt;/font&gt;" style="text;html=1;align=center;verticalAlign=middle;resizable=0;points=[];autosize=1;" vertex="1" parent="1">
          <mxGeometry x="545" y="93.86" width="80" height="20" as="geometry" />
        </mxCell>
        <mxCell id="ADPePZ-A79Ei2Xs7nwOU-21" value="&lt;font style=&quot;font-size: 16px&quot;&gt;App Server&lt;/font&gt;" style="text;html=1;align=center;verticalAlign=middle;resizable=0;points=[];autosize=1;" vertex="1" parent="1">
          <mxGeometry x="650" y="70" width="100" height="20" as="geometry" />
        </mxCell>
        <mxCell id="ADPePZ-A79Ei2Xs7nwOU-22" value="&lt;span style=&quot;font-size: 16px&quot;&gt;Data Server&lt;/span&gt;" style="text;html=1;align=center;verticalAlign=middle;resizable=0;points=[];autosize=1;" vertex="1" parent="1">
          <mxGeometry x="650" y="135" width="100" height="20" as="geometry" />
        </mxCell>
        <mxCell id="ADPePZ-A79Ei2Xs7nwOU-23" value="Data Collection" style="text;html=1;align=center;verticalAlign=middle;resizable=0;points=[];autosize=1;" vertex="1" parent="1">
          <mxGeometry x="535" y="125" width="100" height="20" as="geometry" />
        </mxCell>
        <mxCell id="ADPePZ-A79Ei2Xs7nwOU-24" value="Data Aggregation &amp;amp;&lt;br&gt;Processing" style="text;html=1;align=center;verticalAlign=middle;resizable=0;points=[];autosize=1;" vertex="1" parent="1">
          <mxGeometry x="340" y="118.86" width="120" height="30" as="geometry" />
        </mxCell>
        <mxCell id="ADPePZ-A79Ei2Xs7nwOU-25" value="Indexing &amp;amp;&lt;br&gt;Storage" style="text;html=1;align=center;verticalAlign=middle;resizable=0;points=[];autosize=1;" vertex="1" parent="1">
          <mxGeometry x="230" y="118.86" width="70" height="30" as="geometry" />
        </mxCell>
        <mxCell id="ADPePZ-A79Ei2Xs7nwOU-27" value="Analysis &amp;amp;&lt;br&gt;Visualization" style="text;html=1;align=center;verticalAlign=middle;resizable=0;points=[];autosize=1;" vertex="1" parent="1">
          <mxGeometry x="110" y="113.86" width="80" height="30" as="geometry" />
        </mxCell>
        <mxCell id="ADPePZ-A79Ei2Xs7nwOU-28" value="&lt;font style=&quot;font-size: 22px&quot; color=&quot;#0000ff&quot;&gt;&lt;b&gt;&lt;u&gt;Client Services&lt;/u&gt;&lt;/b&gt;&lt;/font&gt;" style="text;html=1;align=center;verticalAlign=middle;resizable=0;points=[];autosize=1;" vertex="1" parent="1">
          <mxGeometry x="600" y="23.86" width="170" height="20" as="geometry" />
        </mxCell>
        <mxCell id="ADPePZ-A79Ei2Xs7nwOU-33" value="" style="endArrow=none;dashed=1;html=1;dashPattern=1 3;strokeWidth=2;" edge="1" parent="1">
          <mxGeometry width="50" height="50" relative="1" as="geometry">
            <mxPoint x="110" y="83.86" as="sourcePoint" />
            <mxPoint x="460" y="83.86" as="targetPoint" />
          </mxGeometry>
        </mxCell>
        <mxCell id="ADPePZ-A79Ei2Xs7nwOU-38" value="" style="endArrow=none;dashed=1;html=1;dashPattern=1 3;strokeWidth=2;" edge="1" parent="1">
          <mxGeometry width="50" height="50" relative="1" as="geometry">
            <mxPoint x="460" y="148.86" as="sourcePoint" />
            <mxPoint x="460" y="78.86" as="targetPoint" />
          </mxGeometry>
        </mxCell>
        <mxCell id="ADPePZ-A79Ei2Xs7nwOU-39" value="" style="endArrow=none;dashed=1;html=1;dashPattern=1 3;strokeWidth=2;" edge="1" parent="1">
          <mxGeometry width="50" height="50" relative="1" as="geometry">
            <mxPoint x="110" y="153.86" as="sourcePoint" />
            <mxPoint x="110" y="83.86" as="targetPoint" />
          </mxGeometry>
        </mxCell>
        <mxCell id="ADPePZ-A79Ei2Xs7nwOU-40" value="" style="endArrow=none;dashed=1;html=1;dashPattern=1 3;strokeWidth=2;" edge="1" parent="1">
          <mxGeometry width="50" height="50" relative="1" as="geometry">
            <mxPoint x="110" y="153.57000000000002" as="sourcePoint" />
            <mxPoint x="460" y="153.86" as="targetPoint" />
          </mxGeometry>
        </mxCell>
        <mxCell id="ADPePZ-A79Ei2Xs7nwOU-42" value="" style="endArrow=none;dashed=1;html=1;dashPattern=1 3;strokeWidth=2;" edge="1" parent="1">
          <mxGeometry width="50" height="50" relative="1" as="geometry">
            <mxPoint x="640" y="155" as="sourcePoint" />
            <mxPoint x="640" y="79.99999999999994" as="targetPoint" />
          </mxGeometry>
        </mxCell>
        <mxCell id="ADPePZ-A79Ei2Xs7nwOU-43" value="" style="endArrow=none;dashed=1;html=1;dashPattern=1 3;strokeWidth=2;" edge="1" parent="1">
          <mxGeometry width="50" height="50" relative="1" as="geometry">
            <mxPoint x="525" y="155" as="sourcePoint" />
            <mxPoint x="525" y="80" as="targetPoint" />
          </mxGeometry>
        </mxCell>
        <mxCell id="ADPePZ-A79Ei2Xs7nwOU-44" value="" style="endArrow=none;dashed=1;html=1;dashPattern=1 3;strokeWidth=2;" edge="1" parent="1">
          <mxGeometry width="50" height="50" relative="1" as="geometry">
            <mxPoint x="640" y="160" as="sourcePoint" />
            <mxPoint x="525" y="159.70999999999995" as="targetPoint" />
          </mxGeometry>
        </mxCell>
        <mxCell id="ADPePZ-A79Ei2Xs7nwOU-45" value="" style="endArrow=none;dashed=1;html=1;dashPattern=1 3;strokeWidth=2;" edge="1" parent="1">
          <mxGeometry width="50" height="50" relative="1" as="geometry">
            <mxPoint x="640" y="80" as="sourcePoint" />
            <mxPoint x="525" y="80" as="targetPoint" />
          </mxGeometry>
        </mxCell>
        <mxCell id="ADPePZ-A79Ei2Xs7nwOU-46" value="" style="endArrow=none;dashed=1;html=1;dashPattern=1 3;strokeWidth=2;" edge="1" parent="1">
          <mxGeometry width="50" height="50" relative="1" as="geometry">
            <mxPoint x="760" y="120" as="sourcePoint" />
            <mxPoint x="649.72" y="119.99999999999994" as="targetPoint" />
          </mxGeometry>
        </mxCell>
        <mxCell id="ADPePZ-A79Ei2Xs7nwOU-47" value="" style="endArrow=none;dashed=1;html=1;dashPattern=1 3;strokeWidth=2;" edge="1" parent="1">
          <mxGeometry width="50" height="50" relative="1" as="geometry">
            <mxPoint x="760" y="60" as="sourcePoint" />
            <mxPoint x="600" y="59.85999999999994" as="targetPoint" />
          </mxGeometry>
        </mxCell>
        <mxCell id="ADPePZ-A79Ei2Xs7nwOU-48" value="" style="endArrow=none;dashed=1;html=1;dashPattern=1 3;strokeWidth=2;" edge="1" parent="1">
          <mxGeometry width="50" height="50" relative="1" as="geometry">
            <mxPoint x="760" y="180.14" as="sourcePoint" />
            <mxPoint x="600" y="179.99999999999994" as="targetPoint" />
          </mxGeometry>
        </mxCell>
        <mxCell id="ADPePZ-A79Ei2Xs7nwOU-49" value="" style="endArrow=none;dashed=1;html=1;dashPattern=1 3;strokeWidth=2;" edge="1" parent="1">
          <mxGeometry width="50" height="50" relative="1" as="geometry">
            <mxPoint x="760" y="60" as="sourcePoint" />
            <mxPoint x="760" y="180" as="targetPoint" />
          </mxGeometry>
        </mxCell>
        <mxCell id="ADPePZ-A79Ei2Xs7nwOU-50" value="" style="endArrow=none;dashed=1;html=1;dashPattern=1 3;strokeWidth=2;" edge="1" parent="1">
          <mxGeometry width="50" height="50" relative="1" as="geometry">
            <mxPoint x="600" y="180" as="sourcePoint" />
            <mxPoint x="600" y="160" as="targetPoint" />
          </mxGeometry>
        </mxCell>
        <mxCell id="ADPePZ-A79Ei2Xs7nwOU-51" value="" style="endArrow=none;dashed=1;html=1;dashPattern=1 3;strokeWidth=2;" edge="1" parent="1">
          <mxGeometry width="50" height="50" relative="1" as="geometry">
            <mxPoint x="600" y="80" as="sourcePoint" />
            <mxPoint x="600" y="60" as="targetPoint" />
          </mxGeometry>
        </mxCell>
        <mxCell id="ADPePZ-A79Ei2Xs7nwOU-53" value="" style="edgeStyle=orthogonalEdgeStyle;shape=flexArrow;rounded=0;orthogonalLoop=1;jettySize=auto;html=1;" edge="1" parent="1">
          <mxGeometry relative="1" as="geometry">
            <mxPoint x="510" y="103.52" as="sourcePoint" />
            <mxPoint x="470" y="103.52" as="targetPoint" />
            <Array as="points">
              <mxPoint x="510" y="103.52" />
              <mxPoint x="510" y="103.52" />
            </Array>
          </mxGeometry>
        </mxCell>
      </root>
    </mxGraphModel>
  </diagram>
</mxfile>
